<svg width="753" height="360" viewBox="0 0 753 360" fill="none" xmlns="http://www.w3.org/2000/svg">
<path d="M4.968 9.248V19.616C4.968 20.752 5.264 21.624 5.856 22.232C6.448 22.824 7.28 23.12 8.352 23.12C9.44 23.12 10.28 22.824 10.872 22.232C11.464 21.624 11.76 20.752 11.76 19.616V9.248H15.144V19.592C15.144 21.016 14.832 22.224 14.208 23.216C13.6 24.192 12.776 24.928 11.736 25.424C10.712 25.92 9.568 26.168 8.304 26.168C7.056 26.168 5.92 25.92 4.896 25.424C3.888 24.928 3.088 24.192 2.496 23.216C1.904 22.224 1.608 21.016 1.608 19.592V9.248H4.968ZM29.1424 26L25.5184 20.36L22.2304 26H18.4384L23.7184 17.552L18.3664 9.248H22.2304L25.8544 14.864L29.1184 9.248H32.9104L27.6544 17.672L33.0064 26H29.1424Z" fill="black"/>
<rect y="54" width="753" height="12" rx="6" fill="#EDECEC"/>
<rect y="54" width="687" height="12" rx="6" fill="#FD6F00"/>
<g filter="url(#filter0_d_375_56)">
<circle cx="685" cy="60" r="16" fill="#EDECEC"/>
<circle cx="685" cy="60" r="14.5" stroke="#FD6F00" stroke-width="3"/>
</g>
<path d="M24.048 100.248L19.368 117H15.408L12.264 105.072L8.976 117L5.04 117.024L0.528 100.248H4.128L7.08 113.256L10.488 100.248H14.232L17.448 113.184L20.424 100.248H24.048ZM39.3219 110.064C39.3219 110.544 39.2899 110.976 39.2259 111.36H29.5059C29.5859 112.32 29.9219 113.072 30.5139 113.616C31.1059 114.16 31.8339 114.432 32.6979 114.432C33.9459 114.432 34.8339 113.896 35.3619 112.824H38.9859C38.6019 114.104 37.8659 115.16 36.7779 115.992C35.6899 116.808 34.3539 117.216 32.7699 117.216C31.4899 117.216 30.3379 116.936 29.3139 116.376C28.3059 115.8 27.5139 114.992 26.9379 113.952C26.3779 112.912 26.0979 111.712 26.0979 110.352C26.0979 108.976 26.3779 107.768 26.9379 106.728C27.4979 105.688 28.2819 104.888 29.2899 104.328C30.2979 103.768 31.4579 103.488 32.7699 103.488C34.0339 103.488 35.1619 103.76 36.1539 104.304C37.1619 104.848 37.9379 105.624 38.4819 106.632C39.0419 107.624 39.3219 108.768 39.3219 110.064ZM35.8419 109.104C35.8259 108.24 35.5139 107.552 34.9059 107.04C34.2979 106.512 33.5539 106.248 32.6739 106.248C31.8419 106.248 31.1379 106.504 30.5619 107.016C30.0019 107.512 29.6579 108.208 29.5299 109.104H35.8419ZM45.8544 105.648C46.2864 105.008 46.8784 104.488 47.6304 104.088C48.3984 103.688 49.2704 103.488 50.2464 103.488C51.3824 103.488 52.4064 103.768 53.3184 104.328C54.2464 104.888 54.9744 105.688 55.5024 106.728C56.0464 107.752 56.3184 108.944 56.3184 110.304C56.3184 111.664 56.0464 112.872 55.5024 113.928C54.9744 114.968 54.2464 115.776 53.3184 116.352C52.4064 116.928 51.3824 117.216 50.2464 117.216C49.2544 117.216 48.3824 117.024 47.6304 116.64C46.8944 116.24 46.3024 115.728 45.8544 115.104V117H42.4944V99.24H45.8544V105.648ZM52.8864 110.304C52.8864 109.504 52.7184 108.816 52.3824 108.24C52.0624 107.648 51.6304 107.2 51.0864 106.896C50.5584 106.592 49.9824 106.44 49.3584 106.44C48.7504 106.44 48.1744 106.6 47.6304 106.92C47.1024 107.224 46.6704 107.672 46.3344 108.264C46.0144 108.856 45.8544 109.552 45.8544 110.352C45.8544 111.152 46.0144 111.848 46.3344 112.44C46.6704 113.032 47.1024 113.488 47.6304 113.808C48.1744 114.112 48.7504 114.264 49.3584 114.264C49.9824 114.264 50.5584 114.104 51.0864 113.784C51.6304 113.464 52.0624 113.008 52.3824 112.416C52.7184 111.824 52.8864 111.12 52.8864 110.304ZM64.5681 117.216C63.4801 117.216 62.5041 117.024 61.6401 116.64C60.7761 116.24 60.0881 115.704 59.5761 115.032C59.0801 114.36 58.8081 113.616 58.7601 112.8H62.1441C62.2081 113.312 62.4561 113.736 62.8881 114.072C63.3361 114.408 63.8881 114.576 64.5441 114.576C65.1841 114.576 65.6801 114.448 66.0321 114.192C66.4001 113.936 66.5841 113.608 66.5841 113.208C66.5841 112.776 66.3601 112.456 65.9121 112.248C65.4801 112.024 64.7841 111.784 63.8241 111.528C62.8321 111.288 62.0161 111.04 61.3761 110.784C60.7521 110.528 60.2081 110.136 59.7441 109.608C59.2961 109.08 59.0721 108.368 59.0721 107.472C59.0721 106.736 59.2801 106.064 59.6961 105.456C60.1281 104.848 60.7361 104.368 61.5201 104.016C62.3201 103.664 63.2561 103.488 64.3281 103.488C65.9121 103.488 67.1761 103.888 68.1201 104.688C69.0641 105.472 69.5841 106.536 69.6801 107.88H66.4641C66.4161 107.352 66.1921 106.936 65.7921 106.632C65.4081 106.312 64.8881 106.152 64.2321 106.152C63.6241 106.152 63.1521 106.264 62.8161 106.488C62.4961 106.712 62.3361 107.024 62.3361 107.424C62.3361 107.872 62.5601 108.216 63.0081 108.456C63.4561 108.68 64.1521 108.912 65.0961 109.152C66.0561 109.392 66.8481 109.64 67.4721 109.896C68.0961 110.152 68.6321 110.552 69.0801 111.096C69.5441 111.624 69.7841 112.328 69.8001 113.208C69.8001 113.976 69.5841 114.664 69.1521 115.272C68.7361 115.88 68.1281 116.36 67.3281 116.712C66.5441 117.048 65.6241 117.216 64.5681 117.216ZM74.9822 102.12C74.3902 102.12 73.8942 101.936 73.4942 101.568C73.1102 101.184 72.9182 100.712 72.9182 100.152C72.9182 99.592 73.1102 99.128 73.4942 98.76C73.8942 98.376 74.3902 98.184 74.9822 98.184C75.5742 98.184 76.0622 98.376 76.4462 98.76C76.8462 99.128 77.0462 99.592 77.0462 100.152C77.0462 100.712 76.8462 101.184 76.4462 101.568C76.0622 101.936 75.5742 102.12 74.9822 102.12ZM76.6382 103.704V117H73.2782V103.704H76.6382ZM84.5899 106.464V112.896C84.5899 113.344 84.6939 113.672 84.9019 113.88C85.1259 114.072 85.4939 114.168 86.0059 114.168H87.5659V117H85.4539C82.6219 117 81.2059 115.624 81.2059 112.872V106.464H79.6219V103.704H81.2059V100.416H84.5899V103.704H87.5659V106.464H84.5899ZM103.063 110.064C103.063 110.544 103.031 110.976 102.967 111.36H93.2466C93.3266 112.32 93.6626 113.072 94.2546 113.616C94.8466 114.16 95.5746 114.432 96.4386 114.432C97.6866 114.432 98.5746 113.896 99.1026 112.824H102.727C102.343 114.104 101.607 115.16 100.519 115.992C99.4306 116.808 98.0946 117.216 96.5106 117.216C95.2306 117.216 94.0786 116.936 93.0546 116.376C92.0466 115.8 91.2546 114.992 90.6786 113.952C90.1186 112.912 89.8386 111.712 89.8386 110.352C89.8386 108.976 90.1186 107.768 90.6786 106.728C91.2386 105.688 92.0226 104.888 93.0306 104.328C94.0386 103.768 95.1986 103.488 96.5106 103.488C97.7746 103.488 98.9026 103.76 99.8946 104.304C100.903 104.848 101.679 105.624 102.223 106.632C102.783 107.624 103.063 108.768 103.063 110.064ZM99.5826 109.104C99.5666 108.24 99.2546 107.552 98.6466 107.04C98.0386 106.512 97.2946 106.248 96.4146 106.248C95.5826 106.248 94.8786 106.504 94.3026 107.016C93.7426 107.512 93.3986 108.208 93.2706 109.104H99.5826ZM118.53 100.248C120.29 100.248 121.834 100.592 123.162 101.28C124.506 101.968 125.538 102.952 126.258 104.232C126.994 105.496 127.362 106.968 127.362 108.648C127.362 110.328 126.994 111.8 126.258 113.064C125.538 114.312 124.506 115.28 123.162 115.968C121.834 116.656 120.29 117 118.53 117H112.674V100.248H118.53ZM118.41 114.144C120.17 114.144 121.53 113.664 122.49 112.704C123.45 111.744 123.93 110.392 123.93 108.648C123.93 106.904 123.45 105.544 122.49 104.568C121.53 103.576 120.17 103.08 118.41 103.08H116.034V114.144H118.41ZM142.957 110.064C142.957 110.544 142.925 110.976 142.861 111.36H133.141C133.221 112.32 133.557 113.072 134.149 113.616C134.741 114.16 135.469 114.432 136.333 114.432C137.581 114.432 138.469 113.896 138.997 112.824H142.621C142.237 114.104 141.501 115.16 140.413 115.992C139.325 116.808 137.989 117.216 136.405 117.216C135.125 117.216 133.973 116.936 132.949 116.376C131.941 115.8 131.149 114.992 130.573 113.952C130.013 112.912 129.733 111.712 129.733 110.352C129.733 108.976 130.013 107.768 130.573 106.728C131.133 105.688 131.917 104.888 132.925 104.328C133.933 103.768 135.093 103.488 136.405 103.488C137.669 103.488 138.797 103.76 139.789 104.304C140.797 104.848 141.573 105.624 142.117 106.632C142.677 107.624 142.957 108.768 142.957 110.064ZM139.477 109.104C139.461 108.24 139.149 107.552 138.541 107.04C137.933 106.512 137.189 106.248 136.309 106.248C135.477 106.248 134.773 106.504 134.197 107.016C133.637 107.512 133.293 108.208 133.165 109.104H139.477ZM151.217 117.216C150.129 117.216 149.153 117.024 148.289 116.64C147.425 116.24 146.737 115.704 146.225 115.032C145.729 114.36 145.457 113.616 145.409 112.8H148.793C148.857 113.312 149.105 113.736 149.537 114.072C149.985 114.408 150.537 114.576 151.193 114.576C151.833 114.576 152.329 114.448 152.681 114.192C153.049 113.936 153.233 113.608 153.233 113.208C153.233 112.776 153.009 112.456 152.561 112.248C152.129 112.024 151.433 111.784 150.473 111.528C149.481 111.288 148.665 111.04 148.025 110.784C147.401 110.528 146.857 110.136 146.393 109.608C145.945 109.08 145.721 108.368 145.721 107.472C145.721 106.736 145.929 106.064 146.345 105.456C146.777 104.848 147.385 104.368 148.169 104.016C148.969 103.664 149.905 103.488 150.977 103.488C152.561 103.488 153.825 103.888 154.769 104.688C155.713 105.472 156.233 106.536 156.329 107.88H153.113C153.065 107.352 152.841 106.936 152.441 106.632C152.057 106.312 151.537 106.152 150.881 106.152C150.273 106.152 149.801 106.264 149.465 106.488C149.145 106.712 148.985 107.024 148.985 107.424C148.985 107.872 149.209 108.216 149.657 108.456C150.105 108.68 150.801 108.912 151.745 109.152C152.705 109.392 153.497 109.64 154.121 109.896C154.745 110.152 155.281 110.552 155.729 111.096C156.193 111.624 156.433 112.328 156.449 113.208C156.449 113.976 156.233 114.664 155.801 115.272C155.385 115.88 154.777 116.36 153.977 116.712C153.193 117.048 152.273 117.216 151.217 117.216ZM161.632 102.12C161.04 102.12 160.544 101.936 160.144 101.568C159.76 101.184 159.568 100.712 159.568 100.152C159.568 99.592 159.76 99.128 160.144 98.76C160.544 98.376 161.04 98.184 161.632 98.184C162.224 98.184 162.712 98.376 163.096 98.76C163.496 99.128 163.696 99.592 163.696 100.152C163.696 100.712 163.496 101.184 163.096 101.568C162.712 101.936 162.224 102.12 161.632 102.12ZM163.288 103.704V117H159.928V103.704H163.288ZM172.535 103.488C173.527 103.488 174.399 103.688 175.151 104.088C175.903 104.472 176.495 104.976 176.927 105.6V103.704H180.311V117.096C180.311 118.328 180.063 119.424 179.567 120.384C179.071 121.36 178.327 122.128 177.335 122.688C176.343 123.264 175.143 123.552 173.735 123.552C171.847 123.552 170.295 123.112 169.079 122.232C167.879 121.352 167.199 120.152 167.039 118.632H170.375C170.551 119.24 170.927 119.72 171.503 120.072C172.095 120.44 172.807 120.624 173.639 120.624C174.615 120.624 175.407 120.328 176.015 119.736C176.623 119.16 176.927 118.28 176.927 117.096V115.032C176.495 115.656 175.895 116.176 175.127 116.592C174.375 117.008 173.511 117.216 172.535 117.216C171.415 117.216 170.391 116.928 169.463 116.352C168.535 115.776 167.799 114.968 167.255 113.928C166.727 112.872 166.463 111.664 166.463 110.304C166.463 108.96 166.727 107.768 167.255 106.728C167.799 105.688 168.527 104.888 169.439 104.328C170.367 103.768 171.399 103.488 172.535 103.488ZM176.927 110.352C176.927 109.536 176.767 108.84 176.447 108.264C176.127 107.672 175.695 107.224 175.151 106.92C174.607 106.6 174.023 106.44 173.399 106.44C172.775 106.44 172.199 106.592 171.671 106.896C171.143 107.2 170.711 107.648 170.375 108.24C170.055 108.816 169.895 109.504 169.895 110.304C169.895 111.104 170.055 111.808 170.375 112.416C170.711 113.008 171.143 113.464 171.671 113.784C172.215 114.104 172.791 114.264 173.399 114.264C174.023 114.264 174.607 114.112 175.151 113.808C175.695 113.488 176.127 113.04 176.447 112.464C176.767 111.872 176.927 111.168 176.927 110.352ZM191.681 103.512C193.265 103.512 194.545 104.016 195.521 105.024C196.497 106.016 196.985 107.408 196.985 109.2V117H193.625V109.656C193.625 108.6 193.361 107.792 192.833 107.232C192.305 106.656 191.585 106.368 190.673 106.368C189.745 106.368 189.009 106.656 188.465 107.232C187.937 107.792 187.673 108.6 187.673 109.656V117H184.313V103.704H187.673V105.36C188.121 104.784 188.689 104.336 189.377 104.016C190.081 103.68 190.849 103.512 191.681 103.512Z" fill="black"/>
<rect y="145" width="753" height="12" rx="6" fill="#EDECEC"/>
<rect y="145" width="657" height="12" rx="6" fill="#FD6F00"/>
<g filter="url(#filter1_d_375_56)">
<circle cx="653" cy="151" r="16" fill="#EDECEC"/>
<circle cx="653" cy="151" r="14.5" stroke="#FD6F00" stroke-width="3"/>
</g>
<path d="M11.928 204.808H5.256L4.152 208H0.624L6.648 191.224H10.56L16.584 208H13.032L11.928 204.808ZM11.016 202.12L8.592 195.112L6.168 202.12H11.016ZM22.9157 196.624C23.3477 196.016 23.9397 195.512 24.6917 195.112C25.4597 194.696 26.3317 194.488 27.3077 194.488C28.4437 194.488 29.4677 194.768 30.3797 195.328C31.3077 195.888 32.0357 196.688 32.5637 197.728C33.1077 198.752 33.3797 199.944 33.3797 201.304C33.3797 202.664 33.1077 203.872 32.5637 204.928C32.0357 205.968 31.3077 206.776 30.3797 207.352C29.4677 207.928 28.4437 208.216 27.3077 208.216C26.3317 208.216 25.4677 208.016 24.7157 207.616C23.9797 207.216 23.3797 206.712 22.9157 206.104V214.336H19.5557V194.704H22.9157V196.624ZM29.9477 201.304C29.9477 200.504 29.7797 199.816 29.4437 199.24C29.1237 198.648 28.6917 198.2 28.1477 197.896C27.6197 197.592 27.0437 197.44 26.4197 197.44C25.8117 197.44 25.2357 197.6 24.6917 197.92C24.1637 198.224 23.7317 198.672 23.3957 199.264C23.0757 199.856 22.9157 200.552 22.9157 201.352C22.9157 202.152 23.0757 202.848 23.3957 203.44C23.7317 204.032 24.1637 204.488 24.6917 204.808C25.2357 205.112 25.8117 205.264 26.4197 205.264C27.0437 205.264 27.6197 205.104 28.1477 204.784C28.6917 204.464 29.1237 204.008 29.4437 203.416C29.7797 202.824 29.9477 202.12 29.9477 201.304ZM39.9013 196.624C40.3333 196.016 40.9253 195.512 41.6773 195.112C42.4453 194.696 43.3173 194.488 44.2933 194.488C45.4293 194.488 46.4533 194.768 47.3653 195.328C48.2933 195.888 49.0213 196.688 49.5493 197.728C50.0933 198.752 50.3653 199.944 50.3653 201.304C50.3653 202.664 50.0933 203.872 49.5493 204.928C49.0213 205.968 48.2933 206.776 47.3653 207.352C46.4533 207.928 45.4293 208.216 44.2933 208.216C43.3173 208.216 42.4533 208.016 41.7013 207.616C40.9653 207.216 40.3653 206.712 39.9013 206.104V214.336H36.5413V194.704H39.9013V196.624ZM46.9333 201.304C46.9333 200.504 46.7653 199.816 46.4293 199.24C46.1093 198.648 45.6773 198.2 45.1333 197.896C44.6053 197.592 44.0293 197.44 43.4053 197.44C42.7973 197.44 42.2213 197.6 41.6773 197.92C41.1493 198.224 40.7173 198.672 40.3813 199.264C40.0613 199.856 39.9013 200.552 39.9013 201.352C39.9013 202.152 40.0613 202.848 40.3813 203.44C40.7173 204.032 41.1493 204.488 41.6773 204.808C42.2213 205.112 42.7973 205.264 43.4053 205.264C44.0293 205.264 44.6053 205.104 45.1333 204.784C45.6773 204.464 46.1093 204.008 46.4293 203.416C46.7653 202.824 46.9333 202.12 46.9333 201.304ZM65.8217 191.248C67.5817 191.248 69.1257 191.592 70.4537 192.28C71.7977 192.968 72.8297 193.952 73.5497 195.232C74.2857 196.496 74.6537 197.968 74.6537 199.648C74.6537 201.328 74.2857 202.8 73.5497 204.064C72.8297 205.312 71.7977 206.28 70.4537 206.968C69.1257 207.656 67.5817 208 65.8217 208H59.9657V191.248H65.8217ZM65.7017 205.144C67.4617 205.144 68.8217 204.664 69.7817 203.704C70.7417 202.744 71.2217 201.392 71.2217 199.648C71.2217 197.904 70.7417 196.544 69.7817 195.568C68.8217 194.576 67.4617 194.08 65.7017 194.08H63.3257V205.144H65.7017ZM90.2488 201.064C90.2488 201.544 90.2168 201.976 90.1528 202.36H80.4328C80.5128 203.32 80.8488 204.072 81.4408 204.616C82.0328 205.16 82.7608 205.432 83.6248 205.432C84.8728 205.432 85.7608 204.896 86.2888 203.824H89.9128C89.5288 205.104 88.7928 206.16 87.7048 206.992C86.6168 207.808 85.2808 208.216 83.6968 208.216C82.4168 208.216 81.2648 207.936 80.2408 207.376C79.2328 206.8 78.4408 205.992 77.8648 204.952C77.3048 203.912 77.0248 202.712 77.0248 201.352C77.0248 199.976 77.3048 198.768 77.8648 197.728C78.4248 196.688 79.2088 195.888 80.2168 195.328C81.2248 194.768 82.3848 194.488 83.6968 194.488C84.9608 194.488 86.0888 194.76 87.0808 195.304C88.0888 195.848 88.8648 196.624 89.4088 197.632C89.9688 198.624 90.2488 199.768 90.2488 201.064ZM86.7688 200.104C86.7528 199.24 86.4408 198.552 85.8328 198.04C85.2248 197.512 84.4808 197.248 83.6008 197.248C82.7688 197.248 82.0648 197.504 81.4888 198.016C80.9288 198.512 80.5848 199.208 80.4568 200.104H86.7688ZM98.5093 208.216C97.4213 208.216 96.4453 208.024 95.5813 207.64C94.7173 207.24 94.0293 206.704 93.5173 206.032C93.0213 205.36 92.7493 204.616 92.7013 203.8H96.0853C96.1493 204.312 96.3973 204.736 96.8293 205.072C97.2773 205.408 97.8293 205.576 98.4853 205.576C99.1253 205.576 99.6213 205.448 99.9733 205.192C100.341 204.936 100.525 204.608 100.525 204.208C100.525 203.776 100.301 203.456 99.8533 203.248C99.4213 203.024 98.7253 202.784 97.7653 202.528C96.7733 202.288 95.9573 202.04 95.3173 201.784C94.6933 201.528 94.1493 201.136 93.6853 200.608C93.2373 200.08 93.0133 199.368 93.0133 198.472C93.0133 197.736 93.2213 197.064 93.6373 196.456C94.0693 195.848 94.6773 195.368 95.4613 195.016C96.2613 194.664 97.1973 194.488 98.2693 194.488C99.8533 194.488 101.117 194.888 102.061 195.688C103.005 196.472 103.525 197.536 103.621 198.88H100.405C100.357 198.352 100.133 197.936 99.7333 197.632C99.3493 197.312 98.8293 197.152 98.1733 197.152C97.5653 197.152 97.0933 197.264 96.7573 197.488C96.4373 197.712 96.2773 198.024 96.2773 198.424C96.2773 198.872 96.5013 199.216 96.9493 199.456C97.3973 199.68 98.0933 199.912 99.0373 200.152C99.9973 200.392 100.789 200.64 101.413 200.896C102.037 201.152 102.573 201.552 103.021 202.096C103.485 202.624 103.725 203.328 103.741 204.208C103.741 204.976 103.525 205.664 103.093 206.272C102.677 206.88 102.069 207.36 101.269 207.712C100.485 208.048 99.5653 208.216 98.5093 208.216ZM108.923 193.12C108.331 193.12 107.835 192.936 107.435 192.568C107.051 192.184 106.859 191.712 106.859 191.152C106.859 190.592 107.051 190.128 107.435 189.76C107.835 189.376 108.331 189.184 108.923 189.184C109.515 189.184 110.003 189.376 110.387 189.76C110.787 190.128 110.987 190.592 110.987 191.152C110.987 191.712 110.787 192.184 110.387 192.568C110.003 192.936 109.515 193.12 108.923 193.12ZM110.579 194.704V208H107.219V194.704H110.579ZM119.827 194.488C120.819 194.488 121.691 194.688 122.443 195.088C123.195 195.472 123.787 195.976 124.219 196.6V194.704H127.603V208.096C127.603 209.328 127.355 210.424 126.859 211.384C126.363 212.36 125.619 213.128 124.627 213.688C123.635 214.264 122.435 214.552 121.027 214.552C119.139 214.552 117.587 214.112 116.371 213.232C115.171 212.352 114.491 211.152 114.331 209.632H117.667C117.843 210.24 118.219 210.72 118.795 211.072C119.387 211.44 120.099 211.624 120.931 211.624C121.907 211.624 122.699 211.328 123.307 210.736C123.915 210.16 124.219 209.28 124.219 208.096V206.032C123.787 206.656 123.187 207.176 122.419 207.592C121.667 208.008 120.803 208.216 119.827 208.216C118.707 208.216 117.683 207.928 116.755 207.352C115.827 206.776 115.091 205.968 114.547 204.928C114.019 203.872 113.755 202.664 113.755 201.304C113.755 199.96 114.019 198.768 114.547 197.728C115.091 196.688 115.819 195.888 116.731 195.328C117.659 194.768 118.691 194.488 119.827 194.488ZM124.219 201.352C124.219 200.536 124.059 199.84 123.739 199.264C123.419 198.672 122.987 198.224 122.443 197.92C121.899 197.6 121.315 197.44 120.691 197.44C120.067 197.44 119.491 197.592 118.963 197.896C118.435 198.2 118.003 198.648 117.667 199.24C117.347 199.816 117.187 200.504 117.187 201.304C117.187 202.104 117.347 202.808 117.667 203.416C118.003 204.008 118.435 204.464 118.963 204.784C119.507 205.104 120.083 205.264 120.691 205.264C121.315 205.264 121.899 205.112 122.443 204.808C122.987 204.488 123.419 204.04 123.739 203.464C124.059 202.872 124.219 202.168 124.219 201.352ZM138.973 194.512C140.557 194.512 141.837 195.016 142.813 196.024C143.789 197.016 144.277 198.408 144.277 200.2V208H140.917V200.656C140.917 199.6 140.653 198.792 140.125 198.232C139.597 197.656 138.877 197.368 137.965 197.368C137.037 197.368 136.301 197.656 135.757 198.232C135.229 198.792 134.965 199.6 134.965 200.656V208H131.605V194.704H134.965V196.36C135.413 195.784 135.981 195.336 136.669 195.016C137.373 194.68 138.141 194.512 138.973 194.512Z" fill="black"/>
<rect y="236" width="753" height="12" rx="6" fill="#EDECEC"/>
<rect y="236" width="721" height="12" rx="6" fill="#FD6F00"/>
<g filter="url(#filter2_d_375_56)">
<circle cx="717" cy="242" r="16" fill="#EDECEC"/>
<circle cx="717" cy="242" r="14.5" stroke="#FD6F00" stroke-width="3"/>
</g>
<path d="M13.32 287.288C12.936 286.584 12.408 286.048 11.736 285.68C11.064 285.312 10.28 285.128 9.384 285.128C8.392 285.128 7.512 285.352 6.744 285.8C5.976 286.248 5.376 286.888 4.944 287.72C4.512 288.552 4.296 289.512 4.296 290.6C4.296 291.72 4.512 292.696 4.944 293.528C5.392 294.36 6.008 295 6.792 295.448C7.576 295.896 8.488 296.12 9.528 296.12C10.808 296.12 11.856 295.784 12.672 295.112C13.488 294.424 14.024 293.472 14.28 292.256H8.52V289.688H17.592V292.616C17.368 293.784 16.888 294.864 16.152 295.856C15.416 296.848 14.464 297.648 13.296 298.256C12.144 298.848 10.848 299.144 9.408 299.144C7.792 299.144 6.328 298.784 5.016 298.064C3.72 297.328 2.696 296.312 1.944 295.016C1.208 293.72 0.84 292.248 0.84 290.6C0.84 288.952 1.208 287.48 1.944 286.184C2.696 284.872 3.72 283.856 5.016 283.136C6.328 282.4 7.784 282.032 9.384 282.032C11.272 282.032 12.912 282.496 14.304 283.424C15.696 284.336 16.656 285.624 17.184 287.288H13.32ZM24.1579 287.768C24.5899 287.064 25.1499 286.512 25.8379 286.112C26.5419 285.712 27.3419 285.512 28.2379 285.512V289.04H27.3499C26.2939 289.04 25.4939 289.288 24.9499 289.784C24.4219 290.28 24.1579 291.144 24.1579 292.376V299H20.7979V285.704H24.1579V287.768ZM30.357 292.304C30.357 290.96 30.621 289.768 31.149 288.728C31.693 287.688 32.421 286.888 33.333 286.328C34.261 285.768 35.293 285.488 36.429 285.488C37.421 285.488 38.285 285.688 39.021 286.088C39.773 286.488 40.373 286.992 40.821 287.6V285.704H44.205V299H40.821V297.056C40.389 297.68 39.789 298.2 39.021 298.616C38.269 299.016 37.397 299.216 36.405 299.216C35.285 299.216 34.261 298.928 33.333 298.352C32.421 297.776 31.693 296.968 31.149 295.928C30.621 294.872 30.357 293.664 30.357 292.304ZM40.821 292.352C40.821 291.536 40.661 290.84 40.341 290.264C40.021 289.672 39.589 289.224 39.045 288.92C38.501 288.6 37.917 288.44 37.293 288.44C36.669 288.44 36.093 288.592 35.565 288.896C35.037 289.2 34.605 289.648 34.269 290.24C33.949 290.816 33.789 291.504 33.789 292.304C33.789 293.104 33.949 293.808 34.269 294.416C34.605 295.008 35.037 295.464 35.565 295.784C36.109 296.104 36.685 296.264 37.293 296.264C37.917 296.264 38.501 296.112 39.045 295.808C39.589 295.488 40.021 295.04 40.341 294.464C40.661 293.872 40.821 293.168 40.821 292.352ZM51.5666 287.624C51.9986 287.016 52.5906 286.512 53.3426 286.112C54.1106 285.696 54.9826 285.488 55.9586 285.488C57.0946 285.488 58.1186 285.768 59.0306 286.328C59.9586 286.888 60.6866 287.688 61.2146 288.728C61.7586 289.752 62.0306 290.944 62.0306 292.304C62.0306 293.664 61.7586 294.872 61.2146 295.928C60.6866 296.968 59.9586 297.776 59.0306 298.352C58.1186 298.928 57.0946 299.216 55.9586 299.216C54.9826 299.216 54.1186 299.016 53.3666 298.616C52.6306 298.216 52.0306 297.712 51.5666 297.104V305.336H48.2066V285.704H51.5666V287.624ZM58.5986 292.304C58.5986 291.504 58.4306 290.816 58.0946 290.24C57.7746 289.648 57.3426 289.2 56.7986 288.896C56.2706 288.592 55.6946 288.44 55.0706 288.44C54.4626 288.44 53.8866 288.6 53.3426 288.92C52.8146 289.224 52.3826 289.672 52.0466 290.264C51.7266 290.856 51.5666 291.552 51.5666 292.352C51.5666 293.152 51.7266 293.848 52.0466 294.44C52.3826 295.032 52.8146 295.488 53.3426 295.808C53.8866 296.112 54.4626 296.264 55.0706 296.264C55.6946 296.264 56.2706 296.104 56.7986 295.784C57.3426 295.464 57.7746 295.008 58.0946 294.416C58.4306 293.824 58.5986 293.12 58.5986 292.304ZM72.6803 285.512C73.6883 285.512 74.5843 285.736 75.3683 286.184C76.1523 286.616 76.7603 287.264 77.1923 288.128C77.6403 288.976 77.8643 290 77.8643 291.2V299H74.5043V291.656C74.5043 290.6 74.2403 289.792 73.7123 289.232C73.1843 288.656 72.4643 288.368 71.5523 288.368C70.6243 288.368 69.8883 288.656 69.3443 289.232C68.8163 289.792 68.5523 290.6 68.5523 291.656V299H65.1923V281.24H68.5523V287.36C68.9843 286.784 69.5603 286.336 70.2803 286.016C71.0003 285.68 71.8003 285.512 72.6803 285.512ZM83.4834 284.12C82.8914 284.12 82.3954 283.936 81.9954 283.568C81.6114 283.184 81.4194 282.712 81.4194 282.152C81.4194 281.592 81.6114 281.128 81.9954 280.76C82.3954 280.376 82.8914 280.184 83.4834 280.184C84.0754 280.184 84.5634 280.376 84.9474 280.76C85.3474 281.128 85.5474 281.592 85.5474 282.152C85.5474 282.712 85.3474 283.184 84.9474 283.568C84.5634 283.936 84.0754 284.12 83.4834 284.12ZM85.1394 285.704V299H81.7794V285.704H85.1394ZM88.3151 292.352C88.3151 290.976 88.5951 289.776 89.1551 288.752C89.7151 287.712 90.4911 286.912 91.4831 286.352C92.4751 285.776 93.6111 285.488 94.8911 285.488C96.5391 285.488 97.8991 285.904 98.9711 286.736C100.059 287.552 100.787 288.704 101.155 290.192H97.5311C97.3391 289.616 97.0111 289.168 96.5471 288.848C96.0991 288.512 95.5391 288.344 94.8671 288.344C93.9071 288.344 93.1471 288.696 92.5871 289.4C92.0271 290.088 91.7471 291.072 91.7471 292.352C91.7471 293.616 92.0271 294.6 92.5871 295.304C93.1471 295.992 93.9071 296.336 94.8671 296.336C96.2271 296.336 97.1151 295.728 97.5311 294.512H101.155C100.787 295.952 100.059 297.096 98.9711 297.944C97.8831 298.792 96.5231 299.216 94.8911 299.216C93.6111 299.216 92.4751 298.936 91.4831 298.376C90.4911 297.8 89.7151 297 89.1551 295.976C88.5951 294.936 88.3151 293.728 88.3151 292.352ZM116.631 282.248C118.391 282.248 119.935 282.592 121.263 283.28C122.607 283.968 123.639 284.952 124.359 286.232C125.095 287.496 125.463 288.968 125.463 290.648C125.463 292.328 125.095 293.8 124.359 295.064C123.639 296.312 122.607 297.28 121.263 297.968C119.935 298.656 118.391 299 116.631 299H110.775V282.248H116.631ZM116.511 296.144C118.271 296.144 119.631 295.664 120.591 294.704C121.551 293.744 122.031 292.392 122.031 290.648C122.031 288.904 121.551 287.544 120.591 286.568C119.631 285.576 118.271 285.08 116.511 285.08H114.135V296.144H116.511ZM141.059 292.064C141.059 292.544 141.027 292.976 140.963 293.36H131.243C131.323 294.32 131.659 295.072 132.251 295.616C132.843 296.16 133.571 296.432 134.435 296.432C135.683 296.432 136.571 295.896 137.099 294.824H140.723C140.339 296.104 139.603 297.16 138.515 297.992C137.427 298.808 136.091 299.216 134.507 299.216C133.227 299.216 132.075 298.936 131.051 298.376C130.043 297.8 129.251 296.992 128.675 295.952C128.115 294.912 127.835 293.712 127.835 292.352C127.835 290.976 128.115 289.768 128.675 288.728C129.235 287.688 130.019 286.888 131.027 286.328C132.035 285.768 133.195 285.488 134.507 285.488C135.771 285.488 136.899 285.76 137.891 286.304C138.899 286.848 139.675 287.624 140.219 288.632C140.779 289.624 141.059 290.768 141.059 292.064ZM137.579 291.104C137.563 290.24 137.251 289.552 136.643 289.04C136.035 288.512 135.291 288.248 134.411 288.248C133.579 288.248 132.875 288.504 132.299 289.016C131.739 289.512 131.395 290.208 131.267 291.104H137.579ZM149.319 299.216C148.231 299.216 147.255 299.024 146.391 298.64C145.527 298.24 144.839 297.704 144.327 297.032C143.831 296.36 143.559 295.616 143.511 294.8H146.895C146.959 295.312 147.207 295.736 147.639 296.072C148.087 296.408 148.639 296.576 149.295 296.576C149.935 296.576 150.431 296.448 150.783 296.192C151.151 295.936 151.335 295.608 151.335 295.208C151.335 294.776 151.111 294.456 150.663 294.248C150.231 294.024 149.535 293.784 148.575 293.528C147.583 293.288 146.767 293.04 146.127 292.784C145.503 292.528 144.959 292.136 144.495 291.608C144.047 291.08 143.823 290.368 143.823 289.472C143.823 288.736 144.031 288.064 144.447 287.456C144.879 286.848 145.487 286.368 146.271 286.016C147.071 285.664 148.007 285.488 149.079 285.488C150.663 285.488 151.927 285.888 152.871 286.688C153.815 287.472 154.335 288.536 154.431 289.88H151.215C151.167 289.352 150.943 288.936 150.543 288.632C150.159 288.312 149.639 288.152 148.983 288.152C148.375 288.152 147.903 288.264 147.567 288.488C147.247 288.712 147.087 289.024 147.087 289.424C147.087 289.872 147.311 290.216 147.759 290.456C148.207 290.68 148.903 290.912 149.847 291.152C150.807 291.392 151.599 291.64 152.223 291.896C152.847 292.152 153.383 292.552 153.831 293.096C154.295 293.624 154.535 294.328 154.551 295.208C154.551 295.976 154.335 296.664 153.903 297.272C153.487 297.88 152.879 298.36 152.079 298.712C151.295 299.048 150.375 299.216 149.319 299.216ZM159.733 284.12C159.141 284.12 158.645 283.936 158.245 283.568C157.861 283.184 157.669 282.712 157.669 282.152C157.669 281.592 157.861 281.128 158.245 280.76C158.645 280.376 159.141 280.184 159.733 280.184C160.325 280.184 160.813 280.376 161.197 280.76C161.597 281.128 161.797 281.592 161.797 282.152C161.797 282.712 161.597 283.184 161.197 283.568C160.813 283.936 160.325 284.12 159.733 284.12ZM161.389 285.704V299H158.029V285.704H161.389ZM170.637 285.488C171.629 285.488 172.501 285.688 173.253 286.088C174.005 286.472 174.597 286.976 175.029 287.6V285.704H178.413V299.096C178.413 300.328 178.165 301.424 177.669 302.384C177.173 303.36 176.429 304.128 175.437 304.688C174.445 305.264 173.245 305.552 171.837 305.552C169.949 305.552 168.397 305.112 167.181 304.232C165.981 303.352 165.301 302.152 165.141 300.632H168.477C168.653 301.24 169.029 301.72 169.605 302.072C170.197 302.44 170.909 302.624 171.741 302.624C172.717 302.624 173.509 302.328 174.117 301.736C174.725 301.16 175.029 300.28 175.029 299.096V297.032C174.597 297.656 173.997 298.176 173.229 298.592C172.477 299.008 171.613 299.216 170.637 299.216C169.517 299.216 168.493 298.928 167.565 298.352C166.637 297.776 165.901 296.968 165.357 295.928C164.829 294.872 164.565 293.664 164.565 292.304C164.565 290.96 164.829 289.768 165.357 288.728C165.901 287.688 166.629 286.888 167.541 286.328C168.469 285.768 169.501 285.488 170.637 285.488ZM175.029 292.352C175.029 291.536 174.869 290.84 174.549 290.264C174.229 289.672 173.797 289.224 173.253 288.92C172.709 288.6 172.125 288.44 171.501 288.44C170.877 288.44 170.301 288.592 169.773 288.896C169.245 289.2 168.813 289.648 168.477 290.24C168.157 290.816 167.997 291.504 167.997 292.304C167.997 293.104 168.157 293.808 168.477 294.416C168.813 295.008 169.245 295.464 169.773 295.784C170.317 296.104 170.893 296.264 171.501 296.264C172.125 296.264 172.709 296.112 173.253 295.808C173.797 295.488 174.229 295.04 174.549 294.464C174.869 293.872 175.029 293.168 175.029 292.352ZM189.782 285.512C191.366 285.512 192.646 286.016 193.622 287.024C194.598 288.016 195.086 289.408 195.086 291.2V299H191.726V291.656C191.726 290.6 191.462 289.792 190.934 289.232C190.406 288.656 189.686 288.368 188.774 288.368C187.846 288.368 187.11 288.656 186.566 289.232C186.038 289.792 185.774 290.6 185.774 291.656V299H182.414V285.704H185.774V287.36C186.222 286.784 186.79 286.336 187.478 286.016C188.182 285.68 188.95 285.512 189.782 285.512Z" fill="black"/>
<rect y="327" width="753" height="12" rx="6" fill="#EDECEC"/>
<rect y="327" width="687" height="12" rx="6" fill="#FD6F00"/>
<g filter="url(#filter3_d_375_56)">
<circle cx="685" cy="333" r="16" fill="#EDECEC"/>
<circle cx="685" cy="333" r="14.5" stroke="#FD6F00" stroke-width="3"/>
</g>
<defs>
<filter id="filter0_d_375_56" x="662" y="41" width="46" height="46" filterUnits="userSpaceOnUse" color-interpolation-filters="sRGB">
<feFlood flood-opacity="0" result="BackgroundImageFix"/>
<feColorMatrix in="SourceAlpha" type="matrix" values="0 0 0 0 0 0 0 0 0 0 0 0 0 0 0 0 0 0 127 0" result="hardAlpha"/>
<feOffset dy="4"/>
<feGaussianBlur stdDeviation="3.5"/>
<feComposite in2="hardAlpha" operator="out"/>
<feColorMatrix type="matrix" values="0 0 0 0 0 0 0 0 0 0 0 0 0 0 0 0 0 0 0.2 0"/>
<feBlend mode="normal" in2="BackgroundImageFix" result="effect1_dropShadow_375_56"/>
<feBlend mode="normal" in="SourceGraphic" in2="effect1_dropShadow_375_56" result="shape"/>
</filter>
<filter id="filter1_d_375_56" x="630" y="132" width="46" height="46" filterUnits="userSpaceOnUse" color-interpolation-filters="sRGB">
<feFlood flood-opacity="0" result="BackgroundImageFix"/>
<feColorMatrix in="SourceAlpha" type="matrix" values="0 0 0 0 0 0 0 0 0 0 0 0 0 0 0 0 0 0 127 0" result="hardAlpha"/>
<feOffset dy="4"/>
<feGaussianBlur stdDeviation="3.5"/>
<feComposite in2="hardAlpha" operator="out"/>
<feColorMatrix type="matrix" values="0 0 0 0 0 0 0 0 0 0 0 0 0 0 0 0 0 0 0.2 0"/>
<feBlend mode="normal" in2="BackgroundImageFix" result="effect1_dropShadow_375_56"/>
<feBlend mode="normal" in="SourceGraphic" in2="effect1_dropShadow_375_56" result="shape"/>
</filter>
<filter id="filter2_d_375_56" x="694" y="223" width="46" height="46" filterUnits="userSpaceOnUse" color-interpolation-filters="sRGB">
<feFlood flood-opacity="0" result="BackgroundImageFix"/>
<feColorMatrix in="SourceAlpha" type="matrix" values="0 0 0 0 0 0 0 0 0 0 0 0 0 0 0 0 0 0 127 0" result="hardAlpha"/>
<feOffset dy="4"/>
<feGaussianBlur stdDeviation="3.5"/>
<feComposite in2="hardAlpha" operator="out"/>
<feColorMatrix type="matrix" values="0 0 0 0 0 0 0 0 0 0 0 0 0 0 0 0 0 0 0.2 0"/>
<feBlend mode="normal" in2="BackgroundImageFix" result="effect1_dropShadow_375_56"/>
<feBlend mode="normal" in="SourceGraphic" in2="effect1_dropShadow_375_56" result="shape"/>
</filter>
<filter id="filter3_d_375_56" x="662" y="314" width="46" height="46" filterUnits="userSpaceOnUse" color-interpolation-filters="sRGB">
<feFlood flood-opacity="0" result="BackgroundImageFix"/>
<feColorMatrix in="SourceAlpha" type="matrix" values="0 0 0 0 0 0 0 0 0 0 0 0 0 0 0 0 0 0 127 0" result="hardAlpha"/>
<feOffset dy="4"/>
<feGaussianBlur stdDeviation="3.5"/>
<feComposite in2="hardAlpha" operator="out"/>
<feColorMatrix type="matrix" values="0 0 0 0 0 0 0 0 0 0 0 0 0 0 0 0 0 0 0.2 0"/>
<feBlend mode="normal" in2="BackgroundImageFix" result="effect1_dropShadow_375_56"/>
<feBlend mode="normal" in="SourceGraphic" in2="effect1_dropShadow_375_56" result="shape"/>
</filter>
</defs>
</svg>
